<svg class="animated" id="freepik_stories-medical-prescription" xmlns="http://www.w3.org/2000/svg" viewBox="0 0 500 500" version="1.1" xmlns:xlink="http://www.w3.org/1999/xlink" xmlns:svgjs="http://svgjs.com/svgjs"><style>svg#freepik_stories-medical-prescription:not(.animated) .animable {opacity: 0;}svg#freepik_stories-medical-prescription.animated #freepik--background-complete--inject-1 {animation: 1.5s Infinite  linear floating;animation-delay: 0s;}svg#freepik_stories-medical-prescription.animated #freepik--Character--inject-1 {animation: 1.5s Infinite  linear wind;animation-delay: 2s;}svg#freepik_stories-medical-prescription.animated #freepik--Document--inject-1 {animation: 3s Infinite  linear wind;animation-delay: 1s;}svg#freepik_stories-medical-prescription.animated #freepik--Medicine--inject-1 {animation: 6s Infinite  linear heartbeat;animation-delay: 1.5s;}            @keyframes floating {                0% {                    opacity: 1;                    transform: translateY(0px);                }                50% {                    transform: translateY(-10px);                }                100% {                    opacity: 1;                    transform: translateY(0px);                }            }                    @keyframes wind {                0% {                    transform: rotate( 0deg );                }                25% {                    transform: rotate( 1deg );                }                75% {                    transform: rotate( -1deg );                }            }                    @keyframes heartbeat {                0% {                    transform: scale(1);                }                10% {                    transform: scale(1.1);                }                30% {                    transform: scale(1);                }                40% {                    transform: scale(1);                }                50% {                    transform: scale(1.1);                }                60% {                    transform: scale(1);                }                100% {                    transform: scale(1);                }            }        </style><g id="freepik--background-complete--inject-1" class="animable" style="transform-origin: 250px 228.23px;"><rect x="416.78" y="398.49" width="33.12" height="0.25" style="fill: rgb(235, 235, 235); transform-origin: 433.34px 398.615px;" id="el57aix84dk1g" class="animable"></rect><rect x="322.53" y="401.21" width="8.69" height="0.25" style="fill: rgb(235, 235, 235); transform-origin: 326.875px 401.335px;" id="elb6r463926sv" class="animable"></rect><rect x="396.59" y="389.21" width="19.19" height="0.25" style="fill: rgb(235, 235, 235); transform-origin: 406.185px 389.335px;" id="eldcf533tkuop" class="animable"></rect><rect x="52.46" y="390.89" width="43.19" height="0.25" style="fill: rgb(235, 235, 235); transform-origin: 74.055px 391.015px;" id="elzp51b6a0io7" class="animable"></rect><rect x="104.56" y="390.89" width="6.33" height="0.25" style="fill: rgb(235, 235, 235); transform-origin: 107.725px 391.015px;" id="elfjlg4yjhcgg" class="animable"></rect><rect x="131.47" y="395.11" width="93.68" height="0.25" style="fill: rgb(235, 235, 235); transform-origin: 178.31px 395.235px;" id="el8v7ujlx6tfl" class="animable"></rect><path d="M237,337.8H43.92a5.71,5.71,0,0,1-5.71-5.71V60.66A5.71,5.71,0,0,1,43.92,55H237a5.71,5.71,0,0,1,5.71,5.71V332.09A5.71,5.71,0,0,1,237,337.8ZM43.92,55.2a5.47,5.47,0,0,0-5.46,5.46V332.09a5.47,5.47,0,0,0,5.46,5.46H237a5.47,5.47,0,0,0,5.46-5.46V60.66A5.47,5.47,0,0,0,237,55.2Z" style="fill: rgb(235, 235, 235); transform-origin: 140.46px 196.4px;" id="els9k2igaz8di" class="animable"></path><path d="M453.31,337.8H260.21a5.72,5.72,0,0,1-5.71-5.71V60.66A5.72,5.72,0,0,1,260.21,55h193.1A5.71,5.71,0,0,1,459,60.66V332.09A5.71,5.71,0,0,1,453.31,337.8ZM260.21,55.2a5.47,5.47,0,0,0-5.46,5.46V332.09a5.47,5.47,0,0,0,5.46,5.46h193.1a5.47,5.47,0,0,0,5.46-5.46V60.66a5.47,5.47,0,0,0-5.46-5.46Z" style="fill: rgb(235, 235, 235); transform-origin: 356.75px 196.4px;" id="el208fdqovx2t" class="animable"></path><rect y="382.4" width="500" height="0.25" style="fill: rgb(235, 235, 235); transform-origin: 250px 382.525px;" id="elu3pwbe2di3i" class="animable"></rect><path d="M248.64,260.35h-3v-35.9a15,15,0,0,0-14-15.16,14.75,14.75,0,0,0-15.47,14,.74.74,0,0,1-.73.71h-1.54a.74.74,0,0,1-.74-.75,17.79,17.79,0,0,1,17.44-17c9.92-.17,18,8.29,18,18.22Z" style="fill: rgb(240, 240, 240); transform-origin: 230.9px 233.299px;" id="elryimvnjk899" class="animable"></path><rect x="421.37" y="264.27" width="21.32" height="118.09" style="fill: rgb(230, 230, 230); transform-origin: 432.03px 323.315px;" id="elfje1kpqtoc" class="animable"></rect><rect x="196.19" y="264.27" width="231" height="118.09" style="fill: rgb(245, 245, 245); transform-origin: 311.69px 323.315px;" id="el8gad3oqogz5" class="animable"></rect><polygon points="427.19 288.86 196.19 288.86 196.19 290.86 252.94 290.86 252.94 382.36 254.94 382.36 254.94 290.86 310.14 290.86 310.14 382.36 312.14 382.36 312.14 290.86 367.35 290.86 367.35 382.36 369.35 382.36 369.35 290.86 427.19 290.86 427.19 288.86" style="fill: rgb(224, 224, 224); transform-origin: 311.69px 335.61px;" id="elqzm2f44lnqe" class="animable"></polygon><path d="M247.19,341.36h0a2,2,0,0,1-2-2v-9a2,2,0,0,1,2-2h0a2,2,0,0,1,2,2v9A2,2,0,0,1,247.19,341.36Z" style="fill: rgb(230, 230, 230); transform-origin: 247.19px 334.86px;" id="ela0ut0yn7csh" class="animable"></path><path d="M260.69,341.36h0a2,2,0,0,1-2-2v-9a2,2,0,0,1,2-2h0a2,2,0,0,1,2,2v9A2,2,0,0,1,260.69,341.36Z" style="fill: rgb(230, 230, 230); transform-origin: 260.69px 334.86px;" id="eljo3lxuu3f4" class="animable"></path><path d="M361.6,341.36h0a2,2,0,0,1-2-2v-9a2,2,0,0,1,2-2h0a2,2,0,0,1,2,2v9A2,2,0,0,1,361.6,341.36Z" style="fill: rgb(230, 230, 230); transform-origin: 361.6px 334.86px;" id="el1upzhaqw56a" class="animable"></path><path d="M375.1,341.36h0a2,2,0,0,1-2-2v-9a2,2,0,0,1,2-2h0a2,2,0,0,1,2,2v9A2,2,0,0,1,375.1,341.36Z" style="fill: rgb(230, 230, 230); transform-origin: 375.1px 334.86px;" id="elyyzrlsd6agj" class="animable"></path><rect x="421.19" y="261.68" width="26.5" height="5.17" style="fill: rgb(224, 224, 224); transform-origin: 434.44px 264.265px;" id="elekik0h3rrue" class="animable"></rect><rect x="191.19" y="261.68" width="238" height="5.17" style="fill: rgb(235, 235, 235); transform-origin: 310.19px 264.265px;" id="elcshvvj3wqhe" class="animable"></rect><path d="M276.22,262.27H197.33a1.92,1.92,0,0,1-1.92-1.92h0a1.92,1.92,0,0,1,1.92-1.92h78.89a1.92,1.92,0,0,1,1.92,1.92h0A1.92,1.92,0,0,1,276.22,262.27Z" style="fill: rgb(230, 230, 230); transform-origin: 236.775px 260.35px;" id="els1kmpt76sj" class="animable"></path><rect x="253.19" y="255.2" width="2.99" height="3.8" style="fill: rgb(224, 224, 224); transform-origin: 254.685px 257.1px;" id="el0j47gtqnpl0b" class="animable"></rect><polygon points="257.46 256.15 251.9 256.15 252.98 249.5 256.38 249.5 257.46 256.15" style="fill: rgb(240, 240, 240); transform-origin: 254.68px 252.825px;" id="el91g80vfs85m" class="animable"></polygon><rect x="238.06" y="255.2" width="2.99" height="3.8" style="fill: rgb(224, 224, 224); transform-origin: 239.555px 257.1px;" id="el9ylad81k38t" class="animable"></rect><polygon points="242.34 256.15 236.77 256.15 237.86 249.5 241.25 249.5 242.34 256.15" style="fill: rgb(240, 240, 240); transform-origin: 239.555px 252.825px;" id="elwni0nd0k7uh" class="animable"></polygon><rect x="302.67" y="72.41" width="1.8" height="140.37" style="fill: rgb(224, 224, 224); transform-origin: 303.57px 142.595px;" id="elf1z9kxrnqf9" class="animable"></rect><rect x="414.72" y="72.41" width="1.8" height="140.37" style="fill: rgb(224, 224, 224); transform-origin: 415.62px 142.595px;" id="el6rwpv9fjtzp" class="animable"></rect><polygon points="423.57 81.24 295.62 81.24 292.92 74.94 426.27 74.94 423.57 81.24" style="fill: rgb(235, 235, 235); transform-origin: 359.595px 78.09px;" id="elf2ds956thkh" class="animable"></polygon><polygon points="423.57 89.89 295.62 89.89 292.92 83.59 426.27 83.59 423.57 89.89" style="fill: rgb(235, 235, 235); transform-origin: 359.595px 86.74px;" id="el2bqigitkslw" class="animable"></polygon><polygon points="423.57 98.54 295.62 98.54 292.92 92.24 426.27 92.24 423.57 98.54" style="fill: rgb(235, 235, 235); transform-origin: 359.595px 95.39px;" id="elm4zsywzign" class="animable"></polygon><polygon points="423.57 107.19 295.62 107.19 292.92 100.89 426.27 100.89 423.57 107.19" style="fill: rgb(235, 235, 235); transform-origin: 359.595px 104.04px;" id="elq0s0r8x7arf" class="animable"></polygon><polygon points="423.57 115.84 295.62 115.84 292.92 109.54 426.27 109.54 423.57 115.84" style="fill: rgb(235, 235, 235); transform-origin: 359.595px 112.69px;" id="elt98h4v44s2j" class="animable"></polygon><polygon points="423.57 124.49 295.62 124.49 292.92 118.19 426.27 118.19 423.57 124.49" style="fill: rgb(235, 235, 235); transform-origin: 359.595px 121.34px;" id="elwaoj18dtr2" class="animable"></polygon><polygon points="423.57 133.14 295.62 133.14 292.92 126.84 426.27 126.84 423.57 133.14" style="fill: rgb(235, 235, 235); transform-origin: 359.595px 129.99px;" id="elos6pu76so0s" class="animable"></polygon><polygon points="423.57 141.78 295.62 141.78 292.92 135.49 426.27 135.49 423.57 141.78" style="fill: rgb(235, 235, 235); transform-origin: 359.595px 138.635px;" id="el1kre8r10jco" class="animable"></polygon><polygon points="423.57 150.44 295.62 150.44 292.92 144.13 426.27 144.13 423.57 150.44" style="fill: rgb(235, 235, 235); transform-origin: 359.595px 147.285px;" id="elp1qfhwtqfyq" class="animable"></polygon><polygon points="423.57 159.08 295.62 159.08 292.92 152.78 426.27 152.78 423.57 159.08" style="fill: rgb(235, 235, 235); transform-origin: 359.595px 155.93px;" id="ell5cfptiz2t8" class="animable"></polygon><polygon points="423.57 167.73 295.62 167.73 292.92 161.43 426.27 161.43 423.57 167.73" style="fill: rgb(235, 235, 235); transform-origin: 359.595px 164.58px;" id="eljqtqrkycxml" class="animable"></polygon><polygon points="423.57 176.38 295.62 176.38 292.92 170.08 426.27 170.08 423.57 176.38" style="fill: rgb(235, 235, 235); transform-origin: 359.595px 173.23px;" id="elhpd5jb0accm" class="animable"></polygon><polygon points="423.57 185.03 295.62 185.03 292.92 178.73 426.27 178.73 423.57 185.03" style="fill: rgb(235, 235, 235); transform-origin: 359.595px 181.88px;" id="elycwzfufyxb" class="animable"></polygon><polygon points="423.57 193.68 295.62 193.68 292.92 187.38 426.27 187.38 423.57 193.68" style="fill: rgb(235, 235, 235); transform-origin: 359.595px 190.53px;" id="eldk01b2oa72" class="animable"></polygon><polygon points="423.57 202.33 295.62 202.33 292.92 196.03 426.27 196.03 423.57 202.33" style="fill: rgb(235, 235, 235); transform-origin: 359.595px 199.18px;" id="els852e6pbkjf" class="animable"></polygon><polygon points="423.57 210.98 295.62 210.98 292.92 204.68 426.27 204.68 423.57 210.98" style="fill: rgb(235, 235, 235); transform-origin: 359.595px 207.83px;" id="el2yz3pt68zj5" class="animable"></polygon><rect x="292.92" y="210.98" width="133.35" height="3.6" style="fill: rgb(224, 224, 224); transform-origin: 359.595px 212.78px;" id="elp3wyd5tbpe" class="animable"></rect><rect x="288.27" y="67.05" width="142.65" height="8.4" style="fill: rgb(224, 224, 224); transform-origin: 359.595px 71.25px;" id="el1m74lro1i6d" class="animable"></rect><path d="M289.74,151.61h0a1.45,1.45,0,0,1-1.45-1.45v-49a1.45,1.45,0,0,1,1.45-1.45h0a1.45,1.45,0,0,1,1.45,1.45v49A1.45,1.45,0,0,1,289.74,151.61Z" style="fill: rgb(224, 224, 224); transform-origin: 289.74px 125.66px;" id="elsix2rl6l1i" class="animable"></path><rect x="289.21" y="73.77" width="1.05" height="29.1" style="fill: rgb(224, 224, 224); transform-origin: 289.735px 88.32px;" id="elzmzc0nal8nm" class="animable"></rect><g id="elev6i5u9ksto"><rect x="122.02" y="311.61" width="42.25" height="6.5" style="fill: rgb(224, 224, 224); transform-origin: 143.145px 314.86px; transform: rotate(180deg);" class="animable" id="elsdd19xz6bcg"></rect></g><g id="ellf0wfsyksb"><path d="M120.77,315.36h46a0,0,0,0,1,0,0v63.73a3.27,3.27,0,0,1-3.27,3.27H124a3.27,3.27,0,0,1-3.27-3.27V315.36A0,0,0,0,1,120.77,315.36Z" style="fill: rgb(240, 240, 240); transform-origin: 143.75px 348.86px; transform: rotate(180deg);" class="animable" id="elnwgmbpk4via"></path></g><g id="ela2n9ms7zrg"><rect x="120.77" y="303.61" width="46" height="10" rx="3.61" style="fill: rgb(240, 240, 240); transform-origin: 143.77px 308.61px; transform: rotate(180deg);" class="animable" id="eliaoisfe9vzd"></rect></g><polygon points="153.27 382.36 174.77 382.36 174.77 379.36 153.27 377.36 153.27 382.36" style="fill: rgb(224, 224, 224); transform-origin: 164.02px 379.86px;" id="el07zfuf0a9phl" class="animable"></polygon><path d="M408.11,222.12H389.5a6.9,6.9,0,0,0-6.89,6.89v2.3h3.71V229a3.18,3.18,0,0,1,3.18-3.19h18.61a3.19,3.19,0,0,1,3.18,3.19v2.3H415V229A6.89,6.89,0,0,0,408.11,222.12Z" style="fill: rgb(224, 224, 224); transform-origin: 398.805px 226.715px;" id="elpzxohdix4j7" class="animable"></path><path d="M430.16,236.34v20.85a5,5,0,0,1-5,5H379.88a5,5,0,0,1-5-5V236.34a5,5,0,0,1,5-5h45.24A5,5,0,0,1,430.16,236.34Z" style="fill: rgb(230, 230, 230); transform-origin: 402.52px 246.765px;" id="el70ikm6te7tb" class="animable"></path><path d="M423.11,236.34v20.85a5,5,0,0,1-5,5H372.83a5,5,0,0,1-5-5V236.34a5,5,0,0,1,5-5h45.24A5,5,0,0,1,423.11,236.34Z" style="fill: rgb(245, 245, 245); transform-origin: 395.47px 246.765px;" id="elhmjkx6lhqxm" class="animable"></path><rect x="383.82" y="234.89" width="23.61" height="23.61" style="fill: rgb(255, 255, 255); transform-origin: 395.625px 246.695px;" id="elx6s6tah47t" class="animable"></rect><rect x="393.65" y="240.2" width="3.99" height="13.73" style="fill: rgb(224, 224, 224); transform-origin: 395.645px 247.065px;" id="elesyveempv86" class="animable"></rect><g id="elisjyxu787l"><rect x="393.65" y="240.2" width="3.99" height="13.73" style="fill: rgb(224, 224, 224); transform-origin: 395.645px 247.065px; transform: rotate(-90deg);" class="animable" id="el540w7frqsjl"></rect></g></g><g id="freepik--Shadow--inject-1" class="animable" style="transform-origin: 245.18px 412.39px;"><ellipse id="freepik--path--inject-1" cx="245.18" cy="412.39" rx="193.89" ry="11.32" style="fill: rgb(245, 245, 245); transform-origin: 245.18px 412.39px;" class="animable"></ellipse></g><g id="freepik--Character--inject-1" class="animable animator-active" style="transform-origin: 273.228px 294.068px;"><path d="M346.77,237.11c.66-.08,19.78,1.81,21,22.3l-3.27,14.2h0a66.26,66.26,0,0,0-47.79.64l-.23.1,1.33-16.22S322.71,239.93,346.77,237.11Z" style="fill: rgb(38, 50, 56); transform-origin: 342.125px 255.729px;" id="elkmyep4rfxfk" class="animable"></path><path d="M306.62,336.07l3.84.33a660.41,660.41,0,0,1,8.25-72.75,29.92,29.92,0,0,1,12.7-19.26,19.75,19.75,0,0,1,4.5-2.43,24.81,24.81,0,0,1,9.29-2h0s0,0,0,0h0a28.05,28.05,0,0,1,3.88.27,20.1,20.1,0,0,1,8.11,3.15,39.15,39.15,0,0,1,3.28,2.81A17.69,17.69,0,0,1,362,248a21.19,21.19,0,0,1,3.28,16.81,602.77,602.77,0,0,0-8.51,66.56l3.84.26A599,599,0,0,1,369,265.59a25,25,0,0,0-3.93-19.87A23.24,23.24,0,0,0,347.87,236c-15-1-30.61,11.19-32.92,26.83A666.75,666.75,0,0,0,306.62,336.07Z" style="fill: rgb(38, 50, 56); transform-origin: 338.116px 286.171px;" id="el372u7ra5my2" class="animable"></path><g id="elm4mlh0x5z6"><path d="M306.62,336.07l3.84.33a660.41,660.41,0,0,1,8.25-72.75,29.92,29.92,0,0,1,12.7-19.26,19.75,19.75,0,0,1,4.5-2.43,24.81,24.81,0,0,1,9.29-2,0,0,0,0,0,0,0h0a28.05,28.05,0,0,1,3.88.27,20.1,20.1,0,0,1,8.11,3.15,39.15,39.15,0,0,1,3.28,2.81A17.69,17.69,0,0,1,362,248a21.19,21.19,0,0,1,3.28,16.81,602.77,602.77,0,0,0-8.51,66.56l3.84.26A599,599,0,0,1,369,265.59a25,25,0,0,0-3.93-19.87A23.24,23.24,0,0,0,347.87,236c-15-1-30.61,11.19-32.92,26.83A666.75,666.75,0,0,0,306.62,336.07Z" style="fill: rgb(255, 255, 255); opacity: 0.3; transform-origin: 338.116px 286.171px;" class="animable" id="elmsd9cxb71l9"></path></g><g id="elspnjdkxogt"><path d="M272.34,324.37h88.34a0,0,0,0,1,0,0v2.05a7.33,7.33,0,0,1-7.33,7.33H279.68a7.33,7.33,0,0,1-7.33-7.33v-2.05A0,0,0,0,1,272.34,324.37Z" style="fill: rgb(38, 50, 56); transform-origin: 316.51px 329.06px; transform: rotate(180deg);" class="animable" id="elyeuw5wenr9"></path></g><polygon points="357.69 410.92 362.38 410.92 358.54 333.76 352.56 333.76 357.69 410.92" style="fill: rgb(38, 50, 56); transform-origin: 357.47px 372.34px;" id="elg3h5gq07kyl" class="animable"></polygon><g id="elcwt4ejamxbk"><polygon points="357.69 410.92 362.38 410.92 358.54 333.76 352.56 333.76 357.69 410.92" style="fill: rgb(255, 255, 255); opacity: 0.3; transform-origin: 357.47px 372.34px;" class="animable" id="elydnp1pbmnyc"></polygon></g><polygon points="326.32 410.92 331.01 410.92 328.45 333.76 322.48 333.76 326.32 410.92" style="fill: rgb(38, 50, 56); transform-origin: 326.745px 372.34px;" id="el53xyaadg6dc" class="animable"></polygon><g id="el9jn6rexxe2f"><polygon points="326.32 410.92 331.01 410.92 328.45 333.76 322.48 333.76 326.32 410.92" style="fill: rgb(255, 255, 255); opacity: 0.3; transform-origin: 326.745px 372.34px;" class="animable" id="el9rivor7rjuo"></polygon></g><polygon points="302 410.92 306.69 410.92 310.53 333.76 304.56 333.76 302 410.92" style="fill: rgb(38, 50, 56); transform-origin: 306.265px 372.34px;" id="elukdp7fus0cl" class="animable"></polygon><g id="elrwwhytpcuna"><polygon points="302 410.92 306.69 410.92 310.53 333.76 304.56 333.76 302 410.92" style="fill: rgb(255, 255, 255); opacity: 0.3; transform-origin: 306.265px 372.34px;" class="animable" id="elyyp7ja0bl7"></polygon></g><polygon points="270.63 410.92 275.33 410.92 280.45 333.76 274.47 333.76 270.63 410.92" style="fill: rgb(38, 50, 56); transform-origin: 275.54px 372.34px;" id="elzk8pcdg4wo" class="animable"></polygon><g id="elbsp1gzq0a7u"><polygon points="270.63 410.92 275.33 410.92 280.45 333.76 274.47 333.76 270.63 410.92" style="fill: rgb(255, 255, 255); opacity: 0.3; transform-origin: 275.54px 372.34px;" class="animable" id="elwzn5voxrm1p"></polygon></g><g id="el0piyugp997l"><rect x="268.49" y="330.34" width="52.49" height="6.83" style="fill: rgb(38, 50, 56); transform-origin: 294.735px 333.755px; transform: rotate(180deg);" class="animable" id="el3q2mzgt0znd"></rect></g><g id="elqduxmdny5g"><rect x="268.49" y="330.34" width="52.49" height="6.83" style="fill: rgb(255, 255, 255); opacity: 0.7; transform-origin: 294.735px 333.755px; transform: rotate(180deg);" class="animable" id="elvl16g1xes1g"></rect></g><g id="eln6ac4dvewzf"><rect x="320.98" y="330.34" width="43.55" height="6.83" style="fill: rgb(38, 50, 56); transform-origin: 342.755px 333.755px; transform: rotate(180deg);" class="animable" id="elbf4m3b63h9h"></rect></g><g id="el3lq4mnl0asz"><rect x="320.98" y="330.34" width="43.55" height="6.83" style="fill: rgb(255, 255, 255); opacity: 0.4; transform-origin: 342.755px 333.755px; transform: rotate(180deg);" class="animable" id="elkfddjeto3zk"></rect></g><path d="M305.2,224.87c-9.54,1.88-28.44,10-28.56,9.56,0,0-15.91-3.77-22.45-11,0,0-6.25-.77-9.52-1.42,2.37,5.59,7,12.37,12.14,15.6,6.53,4.1,8.31,5.34,14.77,7.8,8.08,3.08,20.45-.19,28.46-3.47,2.95-1.21,6-2.75,7.71-5.43S307.85,226.66,305.2,224.87Z" style="fill: #1EB7C8; transform-origin: 276.563px 234.326px;" id="elljso15fnz99" class="animable"></path><g id="elzz9o8aw3y"><path d="M305.2,224.87c-9.54,1.88-28.44,10-28.56,9.56,0,0-15.91-3.77-22.45-11,0,0-6.25-.77-9.52-1.42,2.37,5.59,7,12.37,12.14,15.6,6.53,4.1,8.31,5.34,14.77,7.8,8.08,3.08,20.45-.19,28.46-3.47,2.95-1.21,6-2.75,7.71-5.43S307.85,226.66,305.2,224.87Z" style="fill: rgb(255, 255, 255); opacity: 0.7; transform-origin: 276.563px 234.326px;" class="animable" id="elp63bclmzgtk"></path></g><path d="M279.86,224.4H256.09c-3.32-12,3.33-24.07,0-36.1h23.77C283.19,200.33,276.53,212.37,279.86,224.4Z" style="fill: #1EB7C8; transform-origin: 267.977px 206.35px;" id="elp6ag47xitq" class="animable"></path><g id="elaq4uf9ynh5f"><g style="opacity: 0.7; transform-origin: 267.977px 206.35px;" class="animable" id="elttd8ys12jyh"><path d="M279.86,224.4H256.09c-3.32-12,3.33-24.07,0-36.1h23.77C283.19,200.33,276.53,212.37,279.86,224.4Z" style="fill: rgb(255, 255, 255); transform-origin: 267.977px 206.35px;" id="el3es2unhrgsx" class="animable"></path></g></g><path d="M259.81,218,256,219.83a6.26,6.26,0,0,1-2.3,3.09,16.21,16.21,0,0,1-3.38,1.43,4.58,4.58,0,0,1-4.8-1.33,1.82,1.82,0,0,1-.38-2l3.65-6.82a2.81,2.81,0,0,1,2.05-1.45l6-.95a2.08,2.08,0,0,1,2,.79l1.76,2.31A2.07,2.07,0,0,1,259.81,218Z" style="fill: rgb(206, 122, 99); transform-origin: 252.997px 218.166px;" id="el02zx1q3wg8zt" class="animable"></path><polygon points="339.82 281.31 345.45 301.85 314.53 308.48 295.86 298.59 301.08 280.92 339.82 281.31" style="fill: #1EB7C8; transform-origin: 320.655px 294.7px;" id="el8jgr24sejdt" class="animable"></polygon><g id="elaly777qmw6g"><polygon points="339.82 281.31 345.45 301.85 314.53 308.48 295.86 298.59 301.08 280.92 339.82 281.31" style="opacity: 0.1; transform-origin: 320.655px 294.7px;" class="animable" id="elke3rusvd8r9"></polygon></g><g id="freepik--freepik--Character--inject-5--inject-1" class="animable" style="transform-origin: 317.59px 251.454px;"><path d="M298.07,236.68a77.77,77.77,0,0,0-.07,15.84c.29,7.08,1.83,14.52,3.76,26,3.87,2.27,23.48,1.33,36-.29-.76-10,.49-21.52,7.29-44.11,1.58-5.24-1.94-10.27-7.56-10.8-1.5-.15-3.1-.27-4.73-.34a129.9,129.9,0,0,0-17.2,0c-1.83.17-3.81.39-5.66.62C303.23,224.45,299.3,229.59,298.07,236.68Z" style="fill: #1EB7C8; transform-origin: 321.53px 251.282px;" id="elybj2wub0qaq" class="animable"></path><path d="M301.08,280.92a170.46,170.46,0,0,0,38.05-.08.91.91,0,0,0,.69-1.09l0-.12c-.31-.73-.63-1.46-.92-2.19a.8.8,0,0,0-.82-.5,168.18,168.18,0,0,1-36.58,0,.81.81,0,0,0-.91.7.13.13,0,0,1,0,.06c-.08.76-.15,1.51-.22,2.27a.85.85,0,0,0,.75.95Z" style="fill: #1EB7C8; transform-origin: 320.103px 279.439px;" id="elhltmtujvcw" class="animable"></path><path d="M315.11,222.67c-9.35,12-10,41.66-7.65,99.92.21,5.08-4.66,4.71-9.43,3.73-7.1-1.47-9.92-.94-9.92-.94s11.33-29.75,9.49-56.43-.56-36.11,3.77-41S315.11,222.67,315.11,222.67Z" style="fill: #1EB7C8; transform-origin: 301.61px 274.794px;" id="elotiz4zqmlsg" class="animable"></path><g id="elkd2etfz6ns"><path d="M315.11,222.67c-9.35,12-10,41.66-7.65,99.92.2,5.08-4.42,4.53-9.44,3.73a58.13,58.13,0,0,0-9.91-.94s11.33-29.75,9.49-56.43-.56-36.11,3.77-41S315.11,222.67,315.11,222.67Z" style="fill: rgb(255, 255, 255); opacity: 0.7; transform-origin: 301.61px 274.754px;" class="animable" id="el9q2ewid1yl"></path></g><path d="M331.57,203.6c-1.49,5.51-3.33,15.68.27,19.38,0,0-4.75,3.81-14.82,7.48-3-.77-2.37-7.48-2.37-7.48,6.29-1.48,6.47-6,5.71-10.35Z" style="fill: rgb(206, 122, 99); transform-origin: 323.217px 217.03px;" id="elqd08wtyabci" class="animable"></path><g id="eldl4l8aev01a"><path d="M327,207.28l-6.65,5.34a17.32,17.32,0,0,1,.3,3c2.39-.34,5.82-2.92,6.26-5.4A8.58,8.58,0,0,0,327,207.28Z" style="opacity: 0.2; transform-origin: 323.718px 211.45px;" class="animable" id="elqrsl368w0us"></path></g><path d="M321.25,183.35a42.15,42.15,0,0,0-7.87,30.82c-3.16-6-6-2.73-6.23-9.49-.1-3.4,1.67-17.19,3.18-20.24s4.6-5.51,8-5.37a4.78,4.78,0,0,1,3.29,1.34C322.45,181.3,322,182.38,321.25,183.35Z" style="fill: rgb(38, 50, 56); transform-origin: 314.606px 196.617px;" id="eloezbq2orsls" class="animable"></path><path d="M336.3,192.49c-1.67,8.94-2.2,12.76-7.33,17-7.68,6.42-18.22,3-19.26-6.07-.91-8.21,2-21.45,11.21-24.4a11.65,11.65,0,0,1,15.38,13.43Z" style="fill: rgb(206, 122, 99); transform-origin: 323.06px 195.553px;" id="elkfl63oe4ra" class="animable"></path><path d="M320.78,194.54c-.21.73-.78,1.24-1.24,1.14s-.69-.78-.48-1.51.78-1.25,1.25-1.15S321,193.8,320.78,194.54Z" style="fill: rgb(38, 50, 56); transform-origin: 319.924px 194.35px;" id="elslwbmh3v63e" class="animable"></path><path d="M313.18,192.71c-.21.73-.77,1.24-1.24,1.14s-.69-.79-.47-1.51.77-1.25,1.24-1.14S313.4,192,313.18,192.71Z" style="fill: rgb(38, 50, 56); transform-origin: 312.325px 192.524px;" id="elh9j2bzqyyp" class="animable"></path><path d="M312.91,191.28l-1.6-.89S311.81,192,312.91,191.28Z" style="fill: rgb(38, 50, 56); transform-origin: 312.11px 190.928px;" id="elepu8ngmtak" class="animable"></path><path d="M315.31,194.46a22.61,22.61,0,0,1-3.95,4.11,3,3,0,0,0,2.44,1.06Z" style="fill: rgb(186, 77, 60); transform-origin: 313.335px 197.047px;" id="elp2qpads4mlm" class="animable"></path><path d="M317.18,203.25a6.51,6.51,0,0,1-1.24-.18.2.2,0,0,1-.16-.25h0a.24.24,0,0,1,.28-.16,6.36,6.36,0,0,0,5.35-1.25.22.22,0,0,1,.31,0h0a.23.23,0,0,1,0,.31h0A6.69,6.69,0,0,1,317.18,203.25Z" style="fill: rgb(38, 50, 56); transform-origin: 318.777px 202.301px;" id="ely3h2nyqpk9p" class="animable"></path><path d="M314.5,180.22c2.8-3.85,10.41-4.9,14.87-3.84,15.8,3.77,8.55,16.9,17.7,24.28-2.66,4.77-5.22,3.76-8.32,5.91-1.81,1.26-6.61,5.19-8.78,5,.11-4.47,2.07-9.61,1.16-14a25.32,25.32,0,0,0-5.59-11.84C322.63,182.53,318.7,180,314.5,180.22Z" style="fill: rgb(38, 50, 56); transform-origin: 330.785px 193.784px;" id="elvpxqxfmnlp" class="animable"></path><g id="elkwpk5vltrr"><path d="M314.5,180.22c2.8-3.85,10.41-4.9,14.87-3.84,15.8,3.77,8.55,16.9,17.7,24.28-2.66,4.77-5.22,3.76-8.32,5.91-1.81,1.26-6.61,5.19-8.78,5,.11-4.47,2.07-9.61,1.16-14a25.32,25.32,0,0,0-5.59-11.84C322.63,182.53,318.7,180,314.5,180.22Z" style="opacity: 0.2; transform-origin: 330.785px 193.784px;" class="animable" id="el5xqzeo1tnvj"></path></g><path d="M314.5,180.22c2.8-3.85,10.41-4.9,14.87-3.84,15.8,3.77,8.55,16.9,17.7,24.28-2.66,4.77-5.22,3.76-8.32,5.91-1.81,1.26-6.61,5.19-8.78,5,.11-4.47,2.07-9.61,1.16-14a25.32,25.32,0,0,0-5.59-11.84C322.63,182.53,318.7,180,314.5,180.22Z" style="fill: rgb(38, 50, 56); transform-origin: 330.785px 193.784px;" id="elajrgrbiegsi" class="animable"></path><g id="elzkaio0fn0bt"><path d="M314.5,180.22c2.8-3.85,10.41-4.9,14.87-3.84,15.8,3.77,8.55,16.9,17.7,24.28-2.66,4.77-5.22,3.76-8.32,5.91-1.81,1.26-6.61,5.19-8.78,5,.11-4.47,2.07-9.61,1.16-14a25.32,25.32,0,0,0-5.59-11.84C322.63,182.53,318.7,180,314.5,180.22Z" style="opacity: 0.1; transform-origin: 330.785px 193.784px;" class="animable" id="el09iru1vpdgrv"></path></g><path d="M335.77,201.54a6.21,6.21,0,0,1-4.18,2.84c-2.13.3-2.75-2.18-1.76-4.46.92-2,3.05-4.68,5-3.92S337,199.59,335.77,201.54Z" style="fill: rgb(206, 122, 99); transform-origin: 332.951px 200.136px;" id="elobcb4sqerkn" class="animable"></path><path d="M324.19,191.62a.35.35,0,0,1-.23-.23,3.28,3.28,0,0,0-2.31-2.07.4.4,0,0,1-.34-.45.09.09,0,0,1,0-.05.47.47,0,0,1,.54-.36,4.05,4.05,0,0,1,2.94,2.59.45.45,0,0,1-.27.57A.45.45,0,0,1,324.19,191.62Z" style="fill: rgb(38, 50, 56); transform-origin: 323.061px 190.052px;" id="el1c508i4ywfc" class="animable"></path><path d="M311.5,188.38a.41.41,0,0,1-.4-.43.41.41,0,0,1,.18-.32,4.68,4.68,0,0,1,4-1.14.43.43,0,0,1,.3.51v0a.49.49,0,0,1-.57.31,3.73,3.73,0,0,0-3.14.93A.48.48,0,0,1,311.5,188.38Z" style="fill: rgb(38, 50, 56); transform-origin: 313.345px 187.396px;" id="elt1zmmxs8egl" class="animable"></path><path d="M320.51,193.11l-1.6-.89S319.41,193.79,320.51,193.11Z" style="fill: rgb(38, 50, 56); transform-origin: 319.71px 192.75px;" id="el79pec08vmzm" class="animable"></path></g><path d="M315.86,179.84a8.43,8.43,0,0,0-1.6,2.52,3.39,3.39,0,0,0,.16,2.89,4.23,4.23,0,0,0,2.06,1.58,12,12,0,0,0,2.55.79,3.1,3.1,0,0,1-1-3.23,4,4,0,0,0,1.88,2.75c.9.53,1.91.82,2.84,1.29,2.93,1.47,8.39,9.17,4.35,25.18,3.57-1.32,8.58-13.89,7.75-17.61s-1-13.28-10.51-16.62C321.77,178.49,318.47,179.1,315.86,179.84Z" style="fill: rgb(38, 50, 56); transform-origin: 324.476px 196.274px;" id="elkj43gvcfnz" class="animable"></path><polygon points="269.67 402.38 261.08 403.21 255.99 379.01 266.12 377.84 269.67 402.38" style="fill: rgb(206, 122, 99); transform-origin: 262.83px 390.525px;" id="eljuicnmir6x9" class="animable"></polygon><path d="M257.53,401.21a4.57,4.57,0,0,1,3-1.36l9.21-.64a.81.81,0,0,1,.9.67l1.78,8.55a1.82,1.82,0,0,1-1.38,2.16H271c-3.48.9-5.67.17-11,.54-3.28.23-10.25,1.53-14.72.79s-3.9-5.17-2-5.26C250.14,406.44,255.76,403,257.53,401.21Z" style="fill: rgb(38, 50, 56); transform-origin: 257.161px 405.674px;" id="elkd2j9c0mgs" class="animable"></path><g id="elwvuuo1yr9a"><g style="opacity: 0.2; transform-origin: 262.025px 385.47px;" class="animable" id="elt2nki5cml5a"><polygon points="255.99 379.02 258.95 393.09 268.06 391.19 266.13 377.85 255.99 379.02" id="el3t34nrwocym" class="animable" style="transform-origin: 262.025px 385.47px;"></polygon></g></g><path d="M309.83,328.84c-.34,0-.69,0-1.05,0a14.72,14.72,0,0,1-1.75-.13l-46-2.46c7.43,6.81,8.65,61.38,8.65,61.38l-2.2.47-10,2.13h0l-1.83.39s-4.17-17.87-9-38.37c-2.44-10.38-5.6-21.11-7-31.41a71,71,0,0,1-.66-8.26c0-.85,0-1.69,0-2.53a2.26,2.26,0,0,1,0-.26c0-.36,0-.7.08-1a9,9,0,0,1,2-4.52l.34-.39a4.17,4.17,0,0,1,.36-.37,10.28,10.28,0,0,1,.76-.71c.28-.23.56-.46.86-.68l.77-.53c.32-.2.64-.39,1-.58a5.12,5.12,0,0,1,.52-.27c.52-.28,1.06-.54,1.63-.78l.49-.21.67-.25c.2-.09.4-.16.6-.23.61-.22,1.24-.43,1.89-.6l.33-.1.09,0c17.45-4.94,47.13-1.13,47.13-1.13s7.84-5.8,16.17-6.9l1.18.13,3.71.41a.9.9,0,0,1,.16,0C332,312.45,324.39,328.68,309.83,328.84Z" style="fill: #1EB7C8; transform-origin: 282.424px 340.58px;" id="el0zomcofkbub9" class="animable"></path><g id="el23uhhcxzr2g"><g style="opacity: 0.1; transform-origin: 282.424px 340.58px;" class="animable" id="elnfbczbbz86k"><path d="M309.83,328.84c-.34,0-.69,0-1.05,0a14.72,14.72,0,0,1-1.75-.13l-46-2.46c7.43,6.81,8.65,61.38,8.65,61.38l-2.2.47-10,2.13h0l-1.83.39s-4.17-17.87-9-38.37c-2.44-10.38-5.6-21.11-7-31.41a71,71,0,0,1-.66-8.26c0-.85,0-1.69,0-2.53a2.26,2.26,0,0,1,0-.26c0-.36,0-.7.08-1a9,9,0,0,1,2-4.52l.34-.39a4.17,4.17,0,0,1,.36-.37,10.28,10.28,0,0,1,.76-.71c.28-.23.56-.46.86-.68l.77-.53c.32-.2.64-.39,1-.58a5.12,5.12,0,0,1,.52-.27c.52-.28,1.06-.54,1.63-.78l.49-.21.67-.25c.2-.09.4-.16.6-.23.61-.22,1.24-.43,1.89-.6l.33-.1.09,0c17.45-4.94,47.13-1.13,47.13-1.13s7.84-5.8,16.17-6.9l1.18.13,3.71.41a.9.9,0,0,1,.16,0C332,312.45,324.39,328.68,309.83,328.84Z" id="eloixxr4e1sf" class="animable" style="transform-origin: 282.424px 340.58px;"></path></g></g><polygon points="212.8 361.29 210.34 365.06 204.86 373.46 195.69 374.42 202.64 359.82 207.36 349.88 212.8 361.29" style="fill: rgb(206, 122, 99); transform-origin: 204.245px 362.15px;" id="elgxq50ubhelu" class="animable"></polygon><path d="M198,368.13l7.59,4.74a.8.8,0,0,1,.35,1l-3.72,8.68a1.77,1.77,0,0,1-2.38.78l-.05,0c-3.54-2.15-5.13-3.36-9.62-6L179,370.85c-3.82-2.24-1.76-6.1.05-5.51,8,2.66,13.43,3,17,2.44A2.87,2.87,0,0,1,198,368.13Z" style="fill: rgb(38, 50, 56); transform-origin: 191.422px 374.4px;" id="elr2np3pwlq0n" class="animable"></path><g id="elv1utohxdeqj"><g style="opacity: 0.2; transform-origin: 207.72px 357.47px;" class="animable" id="ely5py1e0cwwb"><polygon points="212.8 361.29 210.35 365.06 210.34 365.06 202.64 359.82 207.36 349.88 212.8 361.29" id="ella7ip4hlnd8" class="animable" style="transform-origin: 207.72px 357.47px;"></polygon></g></g><path d="M312.79,329.68a21.38,21.38,0,0,1-3-.58c-.34-.08-.69-.18-1.05-.29-8.44-2.43-20.59-9.08-31.9-15.63-10.42-6-20.09-12-25.45-14.44l-.09,0-.33.1c-.65.18-1.28.39-1.89.61a4.84,4.84,0,0,0-.6.22l-.67.25-.49.21c-.57.24-1.11.51-1.63.78-.18.08-.35.18-.52.27-.34.19-.66.38-1,.58l-.77.54c-.3.22-.58.44-.86.67a10.28,10.28,0,0,0-.76.71c-.13.12-.25.25-.36.37l-.34.39a9,9,0,0,0-2,4.52c0,.34-.07.69-.08,1,0,.84,0,1.68,0,2.53a71.89,71.89,0,0,0,.63,8.31l0,.21c-12.56,22.65-25.62,43.19-25.62,43.19l-2.22-1.53-8-5.48-1.38-1s13.94-32.66,23.53-61.76a26.55,26.55,0,0,1,25.44-18.28c23.67.21,54.75,13.29,54.75,13.29l8.53.91,1.18.13,3.71.41a.9.9,0,0,1,.16,0c2,.22,4.24.38,6.41.54a11.6,11.6,0,0,1,10.36,8.53C342.84,323.14,327.71,331.51,312.79,329.68Z" style="fill: #1EB7C8; transform-origin: 270.191px 320.175px;" id="el1s4q74wu28s" class="animable"></path><path d="M312.79,329.68a21.38,21.38,0,0,1-3-.58c-.34-.08-.69-.18-1.05-.29-8.44-2.43-20.59-9.08-31.9-15.63-10.42-6-20.09-12-25.45-14.44l-.09,0-.33.1c-.65.18-1.28.39-1.89.61a4.84,4.84,0,0,0-.6.22l-.67.25-.49.21c-.57.24-1.11.51-1.63.78-.18.08-.35.18-.52.27-.34.19-.66.38-1,.58l-.77.54c-.3.22-.58.44-.86.67a10.28,10.28,0,0,0-.76.71c-.13.12-.25.25-.36.37l-.34.39a9,9,0,0,0-2,4.52c0,.34-.07.69-.08,1,0,.84,0,1.68,0,2.53a71.89,71.89,0,0,0,.63,8.31l0,.21c-12.56,22.65-25.62,43.19-25.62,43.19l-2.22-1.53-8-5.48-1.38-1s13.94-32.66,23.53-61.76a26.55,26.55,0,0,1,25.44-18.28c23.67.21,54.75,13.29,54.75,13.29l8.53.91,1.18.13,3.71.41a.9.9,0,0,1,.16,0c2,.22,4.24.38,6.41.54a11.6,11.6,0,0,1,10.36,8.53C342.84,323.14,327.71,331.51,312.79,329.68Z" style="fill: #1EB7C8; transform-origin: 270.191px 320.175px;" id="elkeoxq9p6alo" class="animable"></path><path d="M251.34,298.49h0l-.33.09Z" style="fill: #1EB7C8; transform-origin: 251.175px 298.535px;" id="eli32s4cp48x" class="animable"></path><path d="M332.23,222.12s-6.51,5.78-8.45,19.73c-3.1,22.49-1.48,65.85-.32,90.62a5.37,5.37,0,0,0,7.26,4.76c7.73-2.88,20.36-.62,26-5.51.41-7.46-12.57-45.58-11.31-65.31s3.72-36.92,1.17-40.64S332.23,222.12,332.23,222.12Z" style="fill: #1EB7C8; transform-origin: 339.358px 279.848px;" id="el297o41z7gk1" class="animable"></path><g id="el5llj7l62ulr"><path d="M332.23,222.12s-6.51,5.78-8.45,19.73c-3.1,22.49-1.31,65.85-.14,90.62a5.36,5.36,0,0,0,7.25,4.76c7.73-2.88,20.19-.62,25.86-5.51.41-7.46-12.57-45.58-11.31-65.31s3.72-36.92,1.17-40.64S332.23,222.12,332.23,222.12Z" style="fill: rgb(255, 255, 255); opacity: 0.7; transform-origin: 339.406px 279.848px;" class="animable" id="elou147jc0i9i"></path></g><path d="M331.94,251.72a.33.33,0,0,1-.31-.35.33.33,0,0,1,.18-.28l1.39-.68a7.09,7.09,0,0,0,4-7l-1.13-13.53a4.5,4.5,0,0,0-8.65-1.33l-5.16,12.54a7.11,7.11,0,0,0,1.67,7.89l1.13,1.07a.34.34,0,0,1,0,.47.33.33,0,0,1-.47,0l-1.13-1.07a7.76,7.76,0,0,1-1.8-8.63l5.2-12.51a5.17,5.17,0,0,1,9.93,1.54l1.12,13.51A7.75,7.75,0,0,1,333.5,251l-1.39.67A.25.25,0,0,1,331.94,251.72Z" style="fill: rgb(38, 50, 56); transform-origin: 329.494px 238.417px;" id="eli9tv89t5okc" class="animable"></path><path d="M336.6,232.84a.34.34,0,0,1-.32-.3A5.35,5.35,0,0,0,326.4,231a.34.34,0,1,1-.63-.23s0,0,0,0a6,6,0,0,1,11.15,1.73.33.33,0,0,1-.29.36Z" style="fill: rgb(38, 50, 56); transform-origin: 331.324px 230.257px;" id="elyeoivoipvol" class="animable"></path><path d="M332.29,225.8h0a.32.32,0,0,1-.3-.35h0c.14-1.63,0-4.61-1.53-5.42a.33.33,0,1,1,.32-.58h0c2.2,1.2,1.88,5.56,1.83,6.06A.32.32,0,0,1,332.29,225.8Z" style="fill: rgb(38, 50, 56); transform-origin: 331.472px 222.604px;" id="el9l52c9e72k8" class="animable"></path><path d="M325.56,250.39c-.1.63-.51,1.08-.92,1s-.66-.61-.56-1.23.5-1.08.91-1S325.65,249.78,325.56,250.39Z" style="fill: rgb(38, 50, 56); transform-origin: 324.818px 250.275px;" id="elslan8wrprz8" class="animable"></path><path d="M332.69,251.51c-.09.61-.5,1.06-.91,1s-.66-.62-.56-1.24.5-1.06.91-1S332.79,250.88,332.69,251.51Z" style="fill: rgb(38, 50, 56); transform-origin: 331.955px 251.39px;" id="elao1fbchphb" class="animable"></path><path d="M314.66,238.54c-.34,1.39-1.36,2.34-2.24,2.12s-1.38-1.5-1-2.93,1.36-2.34,2.24-2.11S315,237.15,314.66,238.54Z" style="fill: rgb(38, 50, 56); transform-origin: 313.032px 238.138px;" id="el10dxw72gjdq" class="animable"></path><path d="M311.82,238.06h-.07a.33.33,0,0,1-.31-.35c.35-5.6,3.68-14.87,7.33-17.9a.32.32,0,0,1,.47,0,.33.33,0,0,1,0,.47.24.24,0,0,1-.08.06c-3.52,3-6.76,11.91-7.09,17.42A.32.32,0,0,1,311.82,238.06Z" style="fill: rgb(38, 50, 56); transform-origin: 315.389px 228.884px;" id="el5093yunqf8r" class="animable"></path><path d="M315.65,238.68c-.23,1.19-1.11,2-2,1.87a2,2,0,0,1-1.18-2.45c.22-1.2,1.11-2,2-1.87A2,2,0,0,1,315.65,238.68Z" style="fill: rgb(255, 255, 255); transform-origin: 314.06px 238.39px;" id="el7ge0ixrdyit" class="animable"></path><path d="M315.72,238.79c-.31,1.47-1.12,2.55-1.79,2.41s-1-1.46-.64-2.94,1.12-2.55,1.79-2.4S316,237.31,315.72,238.79Z" style="fill: rgb(38, 50, 56); transform-origin: 314.488px 238.529px;" id="elqdezbnkp3mr" class="animable"></path><path d="M302.22,270.77l-20.86.38a1.63,1.63,0,0,1-1.62-1.41l-4-31.92a1.28,1.28,0,0,1,1.27-1.46L297.9,236a1.63,1.63,0,0,1,1.62,1.41l4,31.92A1.28,1.28,0,0,1,302.22,270.77Z" style="fill: rgb(38, 50, 56); transform-origin: 289.629px 253.575px;" id="elr5pe02aa6gh" class="animable"></path><path d="M290.28,238.65l-5,.09a2,2,0,0,1-2-1.76L282.9,234l8.6-.16.36,2.94A1.59,1.59,0,0,1,290.28,238.65Z" style="fill: rgb(38, 50, 56); transform-origin: 287.392px 236.29px;" id="el5ar9wri3myd" class="animable"></path><g id="el3vzsmsdutai"><path d="M290.28,238.65l-5,.09a2,2,0,0,1-2-1.76L282.9,234l8.6-.16.36,2.94A1.59,1.59,0,0,1,290.28,238.65Z" style="fill: rgb(255, 255, 255); opacity: 0.7; transform-origin: 287.392px 236.29px;" class="animable" id="elwrqezfp6iv"></path></g><path d="M298.86,236.05l-1,0a1.65,1.65,0,0,1,1.62,1.41l4,31.93a1.28,1.28,0,0,1-1.27,1.46l1,0a1.27,1.27,0,0,0,1.26-1.46l-4-31.93A1.65,1.65,0,0,0,298.86,236.05Z" style="fill: rgb(255, 255, 255); transform-origin: 301.172px 253.45px;" id="elvlwd9uhux0h" class="animable"></path><g id="elsnpxqe4ut9"><path d="M339.41,230.46c.31.68-6.45,27.62-6.45,27.62l5.15,2.27Z" style="opacity: 0.2; transform-origin: 336.19px 245.405px;" class="animable" id="el04ve6w5l9ryy"></path></g><path d="M350.5,247.86c-1.17,10.57-2.25,14.7-3,15.85-3.88,14.33-16.22,7.12-18,6.53-3.08-1-6.26-3.1-9.2-4.46-5.72-2.59-11.12-4.64-16.47-7.93l2.74-5.91s20.53,4.46,23.22,5c1.17.26,7,1.22,6.87-1.91.6-1.06,1.13-19.17,2.81-26.4a6.14,6.14,0,0,1,1.05-2.24l.17-.22c1.12-1.52,1.86-1.51,3.91-1.43,4.47.18,6.58,3.63,7.05,8.08h0C352.09,237,351,243.74,350.5,247.86Z" style="fill: #1EB7C8; transform-origin: 327.791px 248.642px;" id="el3fwpreh3q6j" class="animable"></path><g id="el3qp8943ieap"><g style="opacity: 0.7; transform-origin: 327.791px 248.642px;" class="animable" id="elucrgkjxuwq"><path d="M350.5,247.86c-1.17,10.57-2.25,14.7-3,15.85-3.88,14.33-16.22,7.12-18,6.53-3.08-1-6.26-3.1-9.2-4.46-5.72-2.59-11.12-4.64-16.47-7.93l2.74-5.91s20.53,4.46,23.22,5c1.17.26,7,1.22,6.87-1.91.6-1.06,1.13-19.17,2.81-26.4a6.14,6.14,0,0,1,1.05-2.24l.17-.22c1.12-1.52,1.86-1.51,3.91-1.43,4.47.18,6.58,3.63,7.05,8.08h0C352.09,237,351,243.74,350.5,247.86Z" style="fill: rgb(255, 255, 255); transform-origin: 327.791px 248.642px;" id="elmhmodqr0lbn" class="animable"></path></g></g><path d="M306.81,252.64h0a5.39,5.39,0,0,1-4.44,6.5,23,23,0,0,1-4.94.19l-.38-10.15,7.77,1.52A2.53,2.53,0,0,1,306.81,252.64Z" style="fill: rgb(206, 122, 99); transform-origin: 301.995px 254.283px;" id="elf55o2445of" class="animable"></path><path d="M297.05,249.18l.41,10.18-3.77.22a4.7,4.7,0,0,1-4.87-3.61l-.05-.24a4.7,4.7,0,0,1,3.72-5.7Z" style="fill: rgb(206, 122, 99); transform-origin: 293.052px 254.385px;" id="el9fk12yu0zf" class="animable"></path></g><g id="freepik--Desk--inject-1" class="animable" style="transform-origin: 244.16px 323.805px;"><polygon points="205.19 243.32 202.48 270.8 206.91 270.8 205.19 243.32" style="fill: rgb(38, 50, 56); transform-origin: 204.695px 257.06px;" id="elo4kuj1wasj" class="animable"></polygon><polygon points="238.26 270.64 206.45 270.77 204.9 243.33 236.7 243.19 238.26 270.64" style="fill: #1EB7C8; transform-origin: 221.58px 256.98px;" id="el2dto8un25ek" class="animable"></polygon><g id="eleomfo29skod"><polygon points="238.26 270.64 206.45 270.77 204.9 243.33 236.7 243.19 238.26 270.64" style="fill: rgb(255, 255, 255); opacity: 0.6; transform-origin: 221.58px 256.98px;" class="animable" id="elm1dk5rpmlkj"></polygon></g><polygon points="236.7 243.19 204.9 243.33 204.6 238.19 236.41 238.06 236.7 243.19" style="fill: rgb(38, 50, 56); transform-origin: 220.65px 240.695px;" id="el8owdmm19nb2" class="animable"></polygon><path d="M209.36,236.47a.9.9,0,0,0-.89-.84.79.79,0,0,0-.8.85c0,.3.17,3.09.19,3.39a.91.91,0,0,0,.89.85.8.8,0,0,0,.8-.85C209.54,239.63,209.38,236.71,209.36,236.47Z" style="fill: #1EB7C8; transform-origin: 208.61px 238.175px;" id="el340as0x73c7" class="animable"></path><path d="M215.48,236.45a.9.9,0,0,0-.89-.85.8.8,0,0,0-.8.86c0,.3.17,3.09.19,3.39a.91.91,0,0,0,.9.84.8.8,0,0,0,.8-.85C215.66,239.6,215.5,236.69,215.48,236.45Z" style="fill: #1EB7C8; transform-origin: 214.735px 238.145px;" id="elo8crngj4fwp" class="animable"></path><path d="M221.61,236.42a.91.91,0,0,0-.9-.84.79.79,0,0,0-.8.85c0,.3.18,3.09.19,3.39a.91.91,0,0,0,.9.85.81.81,0,0,0,.8-.86C221.78,239.57,221.62,236.66,221.61,236.42Z" style="fill: #1EB7C8; transform-origin: 220.855px 238.125px;" id="el4fnswsm8aof" class="animable"></path><path d="M227.73,236.4a.91.91,0,0,0-.9-.85.81.81,0,0,0-.8.85c0,.3.18,3.1.2,3.4a.9.9,0,0,0,.89.84.79.79,0,0,0,.8-.85C227.91,239.55,227.74,236.64,227.73,236.4Z" style="fill: #1EB7C8; transform-origin: 226.976px 238.095px;" id="elmndn9zj71uc" class="animable"></path><path d="M233.85,236.37a.9.9,0,0,0-.89-.84.79.79,0,0,0-.8.85c0,.3.17,3.09.19,3.39a.88.88,0,0,0,.89.84.79.79,0,0,0,.8-.85C234,239.52,233.86,236.61,233.85,236.37Z" style="fill: #1EB7C8; transform-origin: 233.1px 238.07px;" id="elxh9hfi84o0o" class="animable"></path><g id="eltny76ccx2hb"><g style="opacity: 0.7; transform-origin: 220.855px 238.125px;" class="animable" id="eln2odm0hr8l"><path d="M209.36,236.47a.9.9,0,0,0-.89-.84.79.79,0,0,0-.8.85c0,.3.17,3.09.19,3.39a.91.91,0,0,0,.89.85.8.8,0,0,0,.8-.85C209.54,239.63,209.38,236.71,209.36,236.47Z" style="fill: rgb(255, 255, 255); transform-origin: 208.61px 238.175px;" id="ellpzj6kw2k" class="animable"></path><path d="M215.48,236.45a.9.9,0,0,0-.89-.85.8.8,0,0,0-.8.86c0,.3.17,3.09.19,3.39a.91.91,0,0,0,.9.84.8.8,0,0,0,.8-.85C215.66,239.6,215.5,236.69,215.48,236.45Z" style="fill: rgb(255, 255, 255); transform-origin: 214.735px 238.145px;" id="eldapokds7md" class="animable"></path><path d="M221.61,236.42a.91.91,0,0,0-.9-.84.79.79,0,0,0-.8.85c0,.3.18,3.09.19,3.39a.91.91,0,0,0,.9.85.81.81,0,0,0,.8-.86C221.78,239.57,221.62,236.66,221.61,236.42Z" style="fill: rgb(255, 255, 255); transform-origin: 220.855px 238.125px;" id="elt4x5uht9xgq" class="animable"></path><path d="M227.73,236.4a.91.91,0,0,0-.9-.85.81.81,0,0,0-.8.85c0,.3.18,3.1.2,3.4a.9.9,0,0,0,.89.84.79.79,0,0,0,.8-.85C227.91,239.55,227.74,236.64,227.73,236.4Z" style="fill: rgb(255, 255, 255); transform-origin: 226.976px 238.095px;" id="ele3co7angqvl" class="animable"></path><path d="M233.85,236.37a.9.9,0,0,0-.89-.84.79.79,0,0,0-.8.85c0,.3.17,3.09.19,3.39a.88.88,0,0,0,.89.84.79.79,0,0,0,.8-.85C234,239.52,233.86,236.61,233.85,236.37Z" style="fill: rgb(255, 255, 255); transform-origin: 233.1px 238.07px;" id="elredahik05u" class="animable"></path></g></g><polygon points="239.15 269.87 207.34 270 204.9 243.33 236.7 243.19 239.15 269.87" style="fill: #1EB7C8; transform-origin: 222.025px 256.595px;" id="eln4v40tztrcn" class="animable"></polygon><g id="el5umvr5ow6xs"><polygon points="239.15 269.87 207.34 270 204.9 243.33 236.7 243.19 239.15 269.87" style="fill: rgb(255, 255, 255); opacity: 0.8; transform-origin: 222.025px 256.595px;" class="animable" id="eln6szdoykrso"></polygon></g><polygon points="229.97 249.78 214.22 249.84 213.79 245.15 229.54 245.08 229.97 249.78" style="fill: #1EB7C8; transform-origin: 221.88px 247.46px;" id="elnhxdy5vn2vd" class="animable"></polygon><g id="elszytg3bbgv"><polygon points="229.97 249.78 214.22 249.84 213.79 245.15 229.54 245.08 229.97 249.78" style="fill: rgb(255, 255, 255); opacity: 0.6; transform-origin: 221.88px 247.46px;" class="animable" id="elnyyuyi9fxv"></polygon></g><polygon points="212.13 255.92 207.92 255.94 207.53 251.73 211.74 251.71 212.13 255.92" style="fill: rgb(255, 255, 255); transform-origin: 209.83px 253.825px;" id="elf997v831l4a" class="animable"></polygon><polygon points="218.09 255.89 213.89 255.91 213.5 251.71 217.71 251.69 218.09 255.89" style="fill: rgb(255, 255, 255); transform-origin: 215.795px 253.8px;" id="elya9f0oi49hk" class="animable"></polygon><polygon points="212.64 261.59 208.44 261.61 208.05 257.4 212.26 257.38 212.64 261.59" style="fill: #1EB7C8; transform-origin: 210.345px 259.495px;" id="eldpxo74eudgf" class="animable"></polygon><polygon points="213.16 267.26 208.96 267.28 208.57 263.07 212.78 263.06 213.16 267.26" style="fill: #1EB7C8; transform-origin: 210.865px 265.17px;" id="el8x7inld9fn7" class="animable"></polygon><polygon points="218.61 261.57 214.41 261.58 214.02 257.38 218.22 257.36 218.61 261.57" style="fill: #1EB7C8; transform-origin: 216.315px 259.47px;" id="elrpph3ku67p" class="animable"></polygon><g id="ellvsm0o0nx6"><polygon points="218.61 261.57 214.41 261.58 214.02 257.38 218.22 257.36 218.61 261.57" style="fill: rgb(255, 255, 255); opacity: 0.2; transform-origin: 216.315px 259.47px;" class="animable" id="elemrpoa86mmu"></polygon></g><polygon points="224.58 261.54 220.37 261.56 219.99 257.35 224.19 257.33 224.58 261.54" style="fill: #1EB7C8; transform-origin: 222.285px 259.445px;" id="el19c2j9xk1w9" class="animable"></polygon><g id="elnfxb14s916n"><polygon points="224.58 261.54 220.37 261.56 219.99 257.35 224.19 257.33 224.58 261.54" style="fill: rgb(255, 255, 255); opacity: 0.2; transform-origin: 222.285px 259.445px;" class="animable" id="el8hi9d7t21t9"></polygon></g><polygon points="230.54 261.52 226.34 261.53 225.95 257.33 230.16 257.31 230.54 261.52" style="fill: #1EB7C8; transform-origin: 228.245px 259.42px;" id="el9hke297n46r" class="animable"></polygon><g id="elozzz0q2fw8h"><polygon points="230.54 261.52 226.34 261.53 225.95 257.33 230.16 257.31 230.54 261.52" style="fill: rgb(255, 255, 255); opacity: 0.2; transform-origin: 228.245px 259.42px;" class="animable" id="elq0wmhk7pxoo"></polygon></g><polygon points="236.51 261.49 232.3 261.51 231.92 257.3 236.12 257.29 236.51 261.49" style="fill: #1EB7C8; transform-origin: 234.215px 259.4px;" id="el32odre4nqt9" class="animable"></polygon><g id="elpcq7rugmf6r"><polygon points="236.51 261.49 232.3 261.51 231.92 257.3 236.12 257.29 236.51 261.49" style="fill: rgb(255, 255, 255); opacity: 0.2; transform-origin: 234.215px 259.4px;" class="animable" id="elizemcur5z4r"></polygon></g><polygon points="219.13 267.24 214.92 267.26 214.54 263.05 218.75 263.03 219.13 267.24" style="fill: #1EB7C8; transform-origin: 216.835px 265.145px;" id="elf6ldxhl8gck" class="animable"></polygon><g id="el6mbjqxr1edr"><polygon points="219.13 267.24 214.92 267.26 214.54 263.05 218.75 263.03 219.13 267.24" style="fill: rgb(255, 255, 255); opacity: 0.2; transform-origin: 216.835px 265.145px;" class="animable" id="eltlpkrj3r19o"></polygon></g><polygon points="225.09 267.21 220.89 267.23 220.5 263.02 224.71 263.01 225.09 267.21" style="fill: #1EB7C8; transform-origin: 222.795px 265.12px;" id="eln57oi92tu5d" class="animable"></polygon><g id="elmif1g0d87wf"><polygon points="225.09 267.21 220.89 267.23 220.5 263.02 224.71 263.01 225.09 267.21" style="fill: rgb(255, 255, 255); opacity: 0.2; transform-origin: 222.795px 265.12px;" class="animable" id="el71yi3j88c5o"></polygon></g><polygon points="231.06 267.19 226.86 267.21 226.47 263 230.68 262.98 231.06 267.19" style="fill: #1EB7C8; transform-origin: 228.765px 265.095px;" id="el4ppt3x6zmbx" class="animable"></polygon><g id="elrg345zj7u6g"><polygon points="231.06 267.19 226.86 267.21 226.47 263 230.68 262.98 231.06 267.19" style="fill: rgb(255, 255, 255); opacity: 0.2; transform-origin: 228.765px 265.095px;" class="animable" id="elqwosmuq7h1s"></polygon></g><polygon points="224.06 255.87 219.85 255.89 219.47 251.68 223.67 251.66 224.06 255.87" style="fill: none; transform-origin: 221.765px 253.775px;" id="elxeb098um5vh" class="animable"></polygon><polygon points="224.06 255.87 219.85 255.89 219.47 251.68 223.67 251.66 224.06 255.87" style="fill: #1EB7C8; transform-origin: 221.765px 253.775px;" id="elcwv6sszxnou" class="animable"></polygon><g id="elkodqwvxyps"><polygon points="224.06 255.87 219.85 255.89 219.47 251.68 223.67 251.66 224.06 255.87" style="fill: rgb(255, 255, 255); opacity: 0.2; transform-origin: 221.765px 253.775px;" class="animable" id="elv0fzegvw4n"></polygon></g><polygon points="230.02 255.84 225.82 255.86 225.43 251.66 229.64 251.64 230.02 255.84" style="fill: none; transform-origin: 227.725px 253.75px;" id="eljdbdjcuq3f8" class="animable"></polygon><polygon points="230.02 255.84 225.82 255.86 225.43 251.66 229.64 251.64 230.02 255.84" style="fill: #1EB7C8; transform-origin: 227.725px 253.75px;" id="eluzeqdpgqks" class="animable"></polygon><g id="el0icvwgolc5iq"><polygon points="230.02 255.84 225.82 255.86 225.43 251.66 229.64 251.64 230.02 255.84" style="fill: rgb(255, 255, 255); opacity: 0.2; transform-origin: 227.725px 253.75px;" class="animable" id="elm4nahak689j"></polygon></g><polygon points="235.99 255.82 231.78 255.84 231.4 251.63 235.6 251.61 235.99 255.82" style="fill: none; transform-origin: 233.695px 253.725px;" id="el8ftvalt16x7" class="animable"></polygon><polygon points="235.99 255.82 231.78 255.84 231.4 251.63 235.6 251.61 235.99 255.82" style="fill: #1EB7C8; transform-origin: 233.695px 253.725px;" id="el7i09qwdxbkx" class="animable"></polygon><g id="elaxypkqltsuq"><polygon points="235.99 255.82 231.78 255.84 231.4 251.63 235.6 251.61 235.99 255.82" style="fill: rgb(255, 255, 255); opacity: 0.2; transform-origin: 233.695px 253.725px;" class="animable" id="elxwdlzzb9n3r"></polygon></g><polygon points="237.03 267.16 232.82 267.18 232.44 262.98 236.64 262.96 237.03 267.16" style="fill: rgb(255, 255, 255); transform-origin: 234.735px 265.07px;" id="elymcgxj3w91s" class="animable"></polygon><polygon points="163.38 278.75 163.38 284.85 127.54 284.85 123.67 412.08 120.38 412.08 120.38 278.75 163.38 278.75" style="fill: rgb(38, 50, 56); transform-origin: 141.88px 345.415px;" id="eludw491q4cl" class="animable"></polygon><g id="elbx5oeotu27u"><polygon points="163.38 278.75 163.38 284.85 127.54 284.85 123.67 412.08 120.38 412.08 120.38 278.75 163.38 278.75" style="fill: rgb(255, 255, 255); opacity: 0.7; transform-origin: 141.88px 345.415px;" class="animable" id="elicg4muy0hg"></polygon></g><g id="el00gedj2yvu3ue"><polygon points="163.38 278.75 163.38 284.85 127.54 284.85 123.67 412.08 120.38 412.08 120.38 278.75 163.38 278.75" style="fill: none; opacity: 0.3; transform-origin: 141.88px 345.415px;" class="animable" id="elld10vfwyzh"></polygon></g><polygon points="120.38 412.08 117.27 412.08 116.27 278.75 120.38 278.75 120.38 412.08" style="fill: rgb(38, 50, 56); transform-origin: 118.325px 345.415px;" id="el1n1y71o5zzn" class="animable"></polygon><g id="eljjjcvr50cl"><g style="opacity: 0.3; transform-origin: 118.325px 345.415px;" class="animable" id="el0gzmnh5d2d1p"><polygon points="120.38 412.08 117.27 412.08 116.27 278.75 120.38 278.75 120.38 412.08" style="fill: rgb(255, 255, 255); transform-origin: 118.325px 345.415px;" id="el2k13n031j9d" class="animable"></polygon></g></g><polygon points="173.58 278.75 173.58 412.08 170.32 412.08 167.42 284.85 163.58 284.85 163.58 278.75 173.58 278.75" style="fill: rgb(38, 50, 56); transform-origin: 168.58px 345.415px;" id="elz8bim6g99s" class="animable"></polygon><polygon points="170.69 412.08 167.58 412.08 163.58 278.75 167.69 278.75 170.69 412.08" style="fill: rgb(38, 50, 56); transform-origin: 167.135px 345.415px;" id="elt5xxrfqey3f" class="animable"></polygon><g id="el4aca8lqvepg"><g style="opacity: 0.3; transform-origin: 167.135px 345.415px;" class="animable" id="elkhc1dx1kyej"><polygon points="170.69 412.08 167.58 412.08 163.58 278.75 167.69 278.75 170.69 412.08" style="fill: rgb(255, 255, 255); transform-origin: 167.135px 345.415px;" id="elffxkrq1igz5" class="animable"></polygon></g></g><g id="el3l501rhprev"><polygon points="173.58 278.75 173.58 412.08 170.32 412.08 167.42 284.85 163.58 284.85 163.58 278.75 173.58 278.75" style="fill: rgb(255, 255, 255); opacity: 0.7; transform-origin: 168.58px 345.415px;" class="animable" id="ellqjyhl5l9ha"></polygon></g><polygon points="369.15 412.08 366.05 412.08 362.05 278.75 366.15 278.75 369.15 412.08" style="fill: rgb(38, 50, 56); transform-origin: 365.6px 345.415px;" id="elia4bdua1iq" class="animable"></polygon><g id="elsxkqd90wd4b"><polyline points="362.05 278.75 366.15 278.75 369.15 412.08 366.05 412.08" style="fill: rgb(255, 255, 255); opacity: 0.3; transform-origin: 365.6px 345.415px;" class="animable" id="el8xp7vogod3d"></polyline></g><rect x="120.4" y="278.75" width="195.47" height="10.11" style="fill: rgb(38, 50, 56); transform-origin: 218.135px 283.805px;" id="ell12i002iowo" class="animable"></rect><g id="el3tubjg8f9uo"><rect x="120.4" y="278.75" width="195.47" height="10.11" style="fill: rgb(255, 255, 255); opacity: 0.5; transform-origin: 218.135px 283.805px;" class="animable" id="el8d0abd2posb"></rect></g><polygon points="319.05 278.75 319.05 412.08 322.33 412.08 326.2 284.84 365.89 284.84 368.79 412.08 372.05 412.08 372.05 278.75 319.05 278.75" style="fill: rgb(38, 50, 56); transform-origin: 345.55px 345.415px;" id="el6pgih0s731s" class="animable"></polygon><g id="el7zibgwdnmf"><polygon points="319.05 278.75 319.05 412.08 322.33 412.08 326.2 284.84 365.89 284.84 368.79 412.08 372.05 412.08 372.05 278.75 319.05 278.75" style="fill: rgb(255, 255, 255); opacity: 0.7; transform-origin: 345.55px 345.415px;" class="animable" id="eldiu8pfvu2xa"></polygon></g><polygon points="319.05 412.08 315.94 412.08 314.94 278.75 319.05 278.75 319.05 412.08" style="fill: rgb(38, 50, 56); transform-origin: 316.995px 345.415px;" id="elmsxlbmhcpzf" class="animable"></polygon><g id="el5erc165eoy"><polygon points="319.05 412.08 315.94 412.08 314.94 278.75 319.05 278.75 319.05 412.08" style="fill: rgb(255, 255, 255); opacity: 0.3; transform-origin: 316.995px 345.415px;" class="animable" id="ellxt78topti"></polygon></g><rect x="110.83" y="271.08" width="205.65" height="7.67" style="fill: rgb(38, 50, 56); transform-origin: 213.655px 274.915px;" id="elmy7sj95cwid" class="animable"></rect><g id="eldq80ebn6stn"><rect x="110.83" y="271.08" width="205.65" height="7.67" style="fill: rgb(255, 255, 255); opacity: 0.6; transform-origin: 213.655px 274.915px;" class="animable" id="elqn63anjb4o"></rect></g><rect x="311.71" y="271.08" width="65.78" height="7.67" style="fill: rgb(38, 50, 56); transform-origin: 344.6px 274.915px;" id="el9w2d6b5su3w" class="animable"></rect><g id="el11bkz9pchxij"><rect x="311.71" y="271.08" width="65.78" height="7.67" style="fill: rgb(255, 255, 255); opacity: 0.7; transform-origin: 344.6px 274.915px;" class="animable" id="el2fg9guztpny"></rect></g></g><g id="freepik--Document--inject-1" class="animable" style="transform-origin: 135.128px 163.62px;"><path d="M195.15,254.8H75.09C91.9,194,58.28,133.23,75.09,72.44H195.15C178.34,133.23,212,194,195.15,254.8Z" style="fill: #1EB7C8; transform-origin: 135.128px 163.62px;" id="elz15ymii65ep" class="animable"></path><g id="el0wggmyc06ll"><path d="M195.15,254.8H75.09C91.9,194,58.28,133.23,75.09,72.44H195.15C178.34,133.23,212,194,195.15,254.8Z" style="fill: rgb(255, 255, 255); opacity: 0.7; transform-origin: 135.128px 163.62px;" class="animable" id="el2a0wufz0tkh"></path></g><path d="M181.19,110.62H126.94a.53.53,0,0,1-.53-.53.53.53,0,0,1,.53-.53h54.25a.53.53,0,0,1,.53.53A.53.53,0,0,1,181.19,110.62Z" style="fill: rgb(38, 50, 56); transform-origin: 154.065px 110.09px;" id="el54p4ckhzye" class="animable"></path><path d="M181.45,121.4H127.2a.56.56,0,0,1-.55-.53.5.5,0,0,1,.5-.53H181.4a.57.57,0,0,1,.56.53A.51.51,0,0,1,181.45,121.4Z" style="fill: rgb(38, 50, 56); transform-origin: 154.305px 120.87px;" id="elkc6ylv98h77" class="animable"></path><path d="M182.15,132.23h-102a.6.6,0,0,1-.58-.53.48.48,0,0,1,.48-.53h102a.58.58,0,0,1,.57.53A.48.48,0,0,1,182.15,132.23Z" style="fill: rgb(38, 50, 56); transform-origin: 131.095px 131.7px;" id="eld1d49j90tvl" class="animable"></path><path d="M190.63,224.67H88.6a.5.5,0,0,1-.51-.53.56.56,0,0,1,.56-.52h102a.49.49,0,0,1,.5.52A.55.55,0,0,1,190.63,224.67Z" style="fill: rgb(38, 50, 56); transform-origin: 139.62px 224.145px;" id="eldb7y06n45w" class="animable"></path><path d="M121,243.2H86.56a.43.43,0,0,1-.43-.53.66.66,0,0,1,.62-.53h34.41a.43.43,0,0,1,.43.53A.66.66,0,0,1,121,243.2Z" style="fill: rgb(38, 50, 56); transform-origin: 103.86px 242.67px;" id="eluqbrpvgk819" class="animable"></path><path d="M188.94,243.2H154.53a.43.43,0,0,1-.43-.53.65.65,0,0,1,.62-.53h34.41a.43.43,0,0,1,.43.53A.66.66,0,0,1,188.94,243.2Z" style="fill: rgb(38, 50, 56); transform-origin: 171.83px 242.67px;" id="elfa9xc2lzfyb" class="animable"></path><path d="M107.21,97.12c0,4.53-3.41,7.35-8.84,7.35h-4.1v5.61H89.56V89.73h8.81C103.8,89.73,107.21,92.55,107.21,97.12Zm-4.77,0c0-2.24-1.46-3.55-4.33-3.55H94.27v7.06h3.84C101,100.63,102.44,99.33,102.44,97.12Z" style="fill: #1EB7C8; transform-origin: 98.385px 99.905px;" id="els6rztt1bv6i" class="animable"></path><path d="M110.44,121.71l-4.91-7.06-4.83,7.06H95.29l7.53-10.35-7.15-10H101l4.68,6.6,4.6-6.6h5.09l-7.1,9.83,7.59,10.52Z" style="fill: #1EB7C8; transform-origin: 105.575px 111.535px;" id="elazbemnlskl" class="animable"></path><path d="M86.58,139c0,1.12-.84,1.82-2.19,1.82h-1v1.39H82.21v-5h2.18C85.74,137.12,86.58,137.82,86.58,139Zm-1.18,0c0-.55-.36-.88-1.07-.88h-1v1.75h1C85,139.82,85.4,139.5,85.4,139Z" style="fill: rgb(38, 50, 56); transform-origin: 84.395px 139.706px;" id="ele07psy4txho" class="animable"></path><path d="M89.73,138.23v1l-.26,0a1,1,0,0,0-1,1.08v1.83H87.32v-3.87h1.07v.51A1.57,1.57,0,0,1,89.73,138.23Z" style="fill: rgb(38, 50, 56); transform-origin: 88.525px 140.182px;" id="el5m2jdowbitt" class="animable"></path><path d="M94.12,140.54H91.2a1,1,0,0,0,1.1.78,1.31,1.31,0,0,0,1-.38l.6.65a2.25,2.25,0,0,1-3.8-1.37,2,2,0,0,1,2.06-2,1.92,1.92,0,0,1,2,2C94.15,140.32,94.13,140.45,94.12,140.54Zm-2.94-.66h1.91a1,1,0,0,0-1.91,0Z" style="fill: rgb(38, 50, 56); transform-origin: 92.1309px 140.22px;" id="elc7891qqblio" class="animable"></path><path d="M94.51,141.8l.38-.81a2.56,2.56,0,0,0,1.34.38c.52,0,.72-.14.72-.36,0-.63-2.34,0-2.34-1.53,0-.73.66-1.25,1.79-1.25a3.15,3.15,0,0,1,1.49.34l-.38.8a2.17,2.17,0,0,0-1.11-.29c-.5,0-.72.16-.72.36,0,.66,2.34,0,2.34,1.55,0,.71-.67,1.23-1.83,1.23A3.32,3.32,0,0,1,94.51,141.8Z" style="fill: rgb(38, 50, 56); transform-origin: 96.265px 140.225px;" id="elt3haojjg7ck" class="animable"></path><path d="M98.42,140.22a2,2,0,0,1,2.15-2,1.77,1.77,0,0,1,1.74,1l-.87.46a1,1,0,0,0-.87-.53,1.07,1.07,0,0,0,0,2.14.94.94,0,0,0,.87-.53l.87.48a1.8,1.8,0,0,1-1.74,1A2,2,0,0,1,98.42,140.22Z" style="fill: rgb(38, 50, 56); transform-origin: 100.365px 140.23px;" id="elm0zx5fnczxh" class="animable"></path><path d="M105.35,138.23v1l-.25,0a1,1,0,0,0-1,1.08v1.83H103v-3.87H104v.51A1.56,1.56,0,0,1,105.35,138.23Z" style="fill: rgb(38, 50, 56); transform-origin: 104.175px 140.181px;" id="el1x30nn4yxsq" class="animable"></path><path d="M105.88,137.12a.64.64,0,0,1,.7-.62.63.63,0,0,1,.7.6.7.7,0,0,1-1.4,0Zm.14,1.17h1.12v3.87H106Z" style="fill: rgb(38, 50, 56); transform-origin: 106.58px 139.328px;" id="el8dbbkmtcvir" class="animable"></path><path d="M112.4,140.22a1.89,1.89,0,0,1-1.93,2,1.54,1.54,0,0,1-1.17-.47v1.8h-1.12v-5.26h1.07v.44a1.53,1.53,0,0,1,1.22-.5A1.89,1.89,0,0,1,112.4,140.22Zm-1.14,0a1,1,0,1,0-1,1.07A1,1,0,0,0,111.26,140.22Z" style="fill: rgb(38, 50, 56); transform-origin: 110.292px 140.889px;" id="elfrrzshmb6qi" class="animable"></path><path d="M115.64,142a1.6,1.6,0,0,1-.92.25,1.27,1.27,0,0,1-1.44-1.39v-1.59h-.6v-.87h.6v-.94h1.12v.94h1v.87h-1v1.57a.45.45,0,0,0,.48.51.75.75,0,0,0,.45-.14Z" style="fill: rgb(38, 50, 56); transform-origin: 114.16px 139.861px;" id="elhsxmpof76z" class="animable"></path><path d="M116.13,137.12a.64.64,0,0,1,.7-.62.63.63,0,0,1,.69.6.7.7,0,0,1-1.39,0Zm.13,1.17h1.13v3.87h-1.13Z" style="fill: rgb(38, 50, 56); transform-origin: 116.825px 139.329px;" id="el47t5x4le4xb" class="animable"></path><path d="M118.14,140.22a2.13,2.13,0,1,1,2.13,2A2,2,0,0,1,118.14,140.22Zm3.11,0a1,1,0,1,0-1,1.07A1,1,0,0,0,121.25,140.22Z" style="fill: rgb(38, 50, 56); transform-origin: 120.266px 140.092px;" id="elxtsadydey3c" class="animable"></path><path d="M127.09,139.94v2.22H126v-2c0-.62-.29-.91-.79-.91s-.92.33-.92,1v1.92h-1.13v-3.87h1.08v.45a1.69,1.69,0,0,1,1.28-.51A1.51,1.51,0,0,1,127.09,139.94Z" style="fill: rgb(38, 50, 56); transform-origin: 125.131px 140.204px;" id="elv4hga5ismf" class="animable"></path><path d="M127.83,138.93a.66.66,0,0,1,.69-.69.67.67,0,0,1,.7.69.68.68,0,0,1-.7.7A.68.68,0,0,1,127.83,138.93Zm0,2.58a.66.66,0,0,1,.69-.69.67.67,0,0,1,.7.69.69.69,0,0,1-.7.71A.68.68,0,0,1,127.83,141.51Z" style="fill: rgb(38, 50, 56); transform-origin: 128.525px 140.23px;" id="elw39ifulhjc" class="animable"></path></g><g id="freepik--Medicine--inject-1" class="animable" style="transform-origin: 183.444px 172.451px;"><g id="els3erltbxbne"><rect x="184.6" y="133.34" width="30.88" height="76.21" rx="6.11" class="animable" style="transform-origin: 200.04px 171.445px; transform: rotate(17.66deg);" id="elohhr8o08dw"></rect></g><g id="eluxtaoyg1abr"><path d="M224.74,144a5.79,5.79,0,0,1-.28,1.67l-19.41,61a6.37,6.37,0,0,1-.23.61,6.1,6.1,0,0,1-7.44,3.36l-17.79-5.66a6.11,6.11,0,0,1-4-7.53l11.2-35.17L195,136.27a6.11,6.11,0,0,1,7.67-4L220.5,138a5.93,5.93,0,0,1,1.12.49A6.08,6.08,0,0,1,224.74,144Z" style="fill: rgb(255, 255, 255); opacity: 0.8; transform-origin: 200.044px 171.458px;" class="animable" id="elvgz7kz5ugh"></path></g><g id="el15adyut7zxu"><g style="opacity: 0.6; transform-origin: 203.242px 156.785px;" class="animable" id="el0cejmdnvnq1f"><g id="elwnerrzpg0cf"><path d="M181.72,178.11l8.07-25.33,22.85-17.32,9,3a6.08,6.08,0,0,1,3.12,5.52Z" style="fill: rgb(255, 255, 255); opacity: 0.5; transform-origin: 203.242px 156.785px;" class="animable" id="el0jy1j1a2wcde"></path></g></g></g><g id="elc1hq6ue54a4"><path d="M193,142.6l2-6.33a6.11,6.11,0,0,1,7.67-4l2.67.85Z" style="fill: rgb(255, 255, 255); opacity: 0.5; transform-origin: 199.17px 137.293px;" class="animable" id="elcgfg5fy52ac"></path></g><path d="M205.27,142.35a2.34,2.34,0,1,1-1.52-2.94A2.33,2.33,0,0,1,205.27,142.35Z" style="fill: #1EB7C8; transform-origin: 203.042px 141.64px;" id="elz9rjph2n92" class="animable"></path><path d="M200.81,156.33a2.33,2.33,0,1,1-1.51-2.93A2.33,2.33,0,0,1,200.81,156.33Z" style="fill: #1EB7C8; transform-origin: 198.591px 155.62px;" id="el0j95ogsp2v6r" class="animable"></path><path d="M196.36,170.32a2.34,2.34,0,1,1-1.52-2.93A2.33,2.33,0,0,1,196.36,170.32Z" style="fill: #1EB7C8; transform-origin: 194.129px 169.619px;" id="el7csptm9a8dw" class="animable"></path><path d="M191.91,184.31a2.34,2.34,0,1,1-1.52-2.94A2.33,2.33,0,0,1,191.91,184.31Z" style="fill: #1EB7C8; transform-origin: 189.682px 183.6px;" id="elkok59t6bm" class="animable"></path><path d="M187.46,198.29a2.34,2.34,0,1,1-1.52-2.93A2.35,2.35,0,0,1,187.46,198.29Z" style="fill: #1EB7C8; transform-origin: 185.226px 197.589px;" id="elh4hbi2dlva8" class="animable"></path><path d="M216.51,145.93a2.34,2.34,0,0,1-4.45-1.42,2.34,2.34,0,1,1,4.45,1.42Z" style="fill: #1EB7C8; transform-origin: 214.329px 145.082px;" id="el0oy7nn5ct08a" class="animable"></path><path d="M212.06,159.91a2.33,2.33,0,1,1-1.52-2.93A2.34,2.34,0,0,1,212.06,159.91Z" style="fill: #1EB7C8; transform-origin: 209.839px 159.202px;" id="el2nu2z0zbea6" class="animable"></path><path d="M207.61,173.9a2.34,2.34,0,1,1-1.52-2.93A2.35,2.35,0,0,1,207.61,173.9Z" style="fill: #1EB7C8; transform-origin: 205.376px 173.199px;" id="elp5ese5xj5je" class="animable"></path><path d="M203.15,187.89a2.34,2.34,0,0,1-4.45-1.42,2.34,2.34,0,1,1,4.45,1.42Z" style="fill: #1EB7C8; transform-origin: 200.969px 187.042px;" id="eleykgzyya01e" class="animable"></path><path d="M198.7,201.87a2.33,2.33,0,1,1-1.52-2.93A2.34,2.34,0,0,1,198.7,201.87Z" style="fill: #1EB7C8; transform-origin: 196.479px 201.162px;" id="elwpiffui986i" class="animable"></path><g id="elll6l3kvn1t"><g style="opacity: 0.4; transform-origin: 194.135px 169.614px;" class="animable" id="eljj9jjny1i7p"><path d="M205.27,142.35a2.34,2.34,0,1,1-1.52-2.94A2.33,2.33,0,0,1,205.27,142.35Z" style="fill: rgb(255, 255, 255); transform-origin: 203.042px 141.64px;" id="elprc1ydlidf" class="animable"></path><path d="M200.81,156.33a2.33,2.33,0,1,1-1.51-2.93A2.33,2.33,0,0,1,200.81,156.33Z" style="fill: rgb(255, 255, 255); transform-origin: 198.591px 155.62px;" id="elphxwwjd1ioo" class="animable"></path><path d="M196.36,170.32a2.34,2.34,0,1,1-1.52-2.93A2.33,2.33,0,0,1,196.36,170.32Z" style="fill: rgb(255, 255, 255); transform-origin: 194.129px 169.619px;" id="el2ghtkjge2o4" class="animable"></path><path d="M191.91,184.31a2.34,2.34,0,1,1-1.52-2.94A2.33,2.33,0,0,1,191.91,184.31Z" style="fill: rgb(255, 255, 255); transform-origin: 189.682px 183.6px;" id="eldd3g8720jj" class="animable"></path><path d="M187.46,198.29a2.34,2.34,0,1,1-1.52-2.93A2.35,2.35,0,0,1,187.46,198.29Z" style="fill: rgb(255, 255, 255); transform-origin: 185.226px 197.589px;" id="elmibv2g0xqxo" class="animable"></path></g></g><g id="elkjrcta47dxj"><g style="opacity: 0.4; transform-origin: 205.409px 173.117px;" class="animable" id="eldw24w04af1p"><path d="M216.51,145.93a2.34,2.34,0,0,1-4.45-1.42,2.34,2.34,0,1,1,4.45,1.42Z" style="fill: rgb(255, 255, 255); transform-origin: 214.329px 145.082px;" id="elyg1e5kygzfa" class="animable"></path><path d="M212.06,159.91a2.33,2.33,0,1,1-1.52-2.93A2.34,2.34,0,0,1,212.06,159.91Z" style="fill: rgb(255, 255, 255); transform-origin: 209.839px 159.202px;" id="el3c1cjtrxtm" class="animable"></path><path d="M207.61,173.9a2.34,2.34,0,1,1-1.52-2.93A2.35,2.35,0,0,1,207.61,173.9Z" style="fill: rgb(255, 255, 255); transform-origin: 205.376px 173.199px;" id="elkqu2rb9jvbe" class="animable"></path><path d="M203.15,187.89a2.34,2.34,0,0,1-4.45-1.42,2.34,2.34,0,1,1,4.45,1.42Z" style="fill: rgb(255, 255, 255); transform-origin: 200.969px 187.042px;" id="eldbf15d1nwxq" class="animable"></path><path d="M198.7,201.87a2.33,2.33,0,1,1-1.52-2.93A2.34,2.34,0,0,1,198.7,201.87Z" style="fill: rgb(255, 255, 255); transform-origin: 196.479px 201.162px;" id="elrmy6ycduwwd" class="animable"></path></g></g><g id="elsjp8vt6rzak"><path d="M186.84,208l-30.72,6.34a5.45,5.45,0,0,1-6.43-4.23l-8.84-42.86a13,13,0,0,1,6.66-14.15,12.89,12.89,0,0,1,3.45-1.24l15.87-3.27a13,13,0,0,1,15.38,10.12l8.85,42.86A5.43,5.43,0,0,1,186.84,208Z" style="fill: rgb(255, 255, 255); opacity: 0.7; transform-origin: 165.876px 181.385px;" class="animable" id="el2qycfuxvu2g"></path></g><g id="eljxrb2iirqrp"><rect x="144.09" y="164.6" width="42.24" height="32.48" style="fill: #1EB7C8; transform-origin: 165.21px 180.84px; transform: rotate(-11.66deg);" class="animable" id="ell4z5bkd0kv"></rect></g><g id="elg5odht1ftu"><rect x="144.09" y="164.6" width="42.24" height="32.48" style="fill: rgb(255, 255, 255); opacity: 0.4; transform-origin: 165.21px 180.84px; transform: rotate(-11.66deg);" class="animable" id="el5p8wcmy9n3i"></rect></g><g id="elzyf5oxfizd"><path d="M146.56,140.21h23a2.83,2.83,0,0,1,2.83,2.83v4.35a0,0,0,0,1,0,0h-28.7a0,0,0,0,1,0,0V143A2.83,2.83,0,0,1,146.56,140.21Z" style="fill: #1EB7C8; transform-origin: 158.04px 143.8px; transform: rotate(-11.66deg);" class="animable" id="elnvzralzr82h"></path></g><g id="elxs0ekqo4m6"><path d="M171.67,148.5a13.16,13.16,0,0,0-4.84.09L151,151.86a12.89,12.89,0,0,0-3.45,1.24l-.68-3.31,24.08-5Z" style="fill: rgb(255, 255, 255); opacity: 0.7; transform-origin: 159.27px 148.945px;" class="animable" id="eltna451uarx"></path></g><g id="el3y6n1t9eki"><path d="M147.1,155.46a.77.77,0,0,0-1.43-.33,9.85,9.85,0,0,0-1.46,6c.54,3.6,8.22,42.85,9.4,48.86a2.21,2.21,0,0,0,.76,1.26h0a2.17,2.17,0,0,0,1.87.41l1.17-.29-10-51.31S147.23,157.6,147.1,155.46Z" style="fill: rgb(255, 255, 255); opacity: 0.3; transform-origin: 150.794px 183.238px;" class="animable" id="elqgw6mlj6ufo"></path></g></g><defs>     <filter id="active" height="200%">         <feMorphology in="SourceAlpha" result="DILATED" operator="dilate" radius="2"></feMorphology>                <feFlood flood-color="#32DFEC" flood-opacity="1" result="PINK"></feFlood>        <feComposite in="PINK" in2="DILATED" operator="in" result="OUTLINE"></feComposite>        <feMerge>            <feMergeNode in="OUTLINE"></feMergeNode>            <feMergeNode in="SourceGraphic"></feMergeNode>        </feMerge>    </filter>    <filter id="hover" height="200%">        <feMorphology in="SourceAlpha" result="DILATED" operator="dilate" radius="2"></feMorphology>                <feFlood flood-color="#ff0000" flood-opacity="0.5" result="PINK"></feFlood>        <feComposite in="PINK" in2="DILATED" operator="in" result="OUTLINE"></feComposite>        <feMerge>            <feMergeNode in="OUTLINE"></feMergeNode>            <feMergeNode in="SourceGraphic"></feMergeNode>        </feMerge>            <feColorMatrix type="matrix" values="0   0   0   0   0                0   1   0   0   0                0   0   0   0   0                0   0   0   1   0 "></feColorMatrix>    </filter></defs></svg>